<svg enable-background="new 0 0 24 24" height="24" viewBox="0 0 24 24" width="24" xmlns="http://www.w3.org/2000/svg"><path d="m17.5439 22.0869c-.0498 0-.0996-.002-.1494-.0059-1.3867-.0078-8.5977-.0488-12.4668-.1406-3.6821-.0879-4.6992-4.6338-4.7407-4.8271-.0322-.1494.0059-.3057.1035-.4229.0977-.1182.2568-.1719.397-.1816l13.0527.3018c.1875.0049.3574.1143.4395.2832 1.2041 2.5107 2.3613 3.9062 3.292 3.9873.0947.001.1494.001.1592.001.0312-.002.0615-.0068.0908-.0117 2.416-.4414 4.2969-9.4014 5.0576-17.7295l-13.771-.4034c-.1523 1.8408-.8071 8.4185-2.6387 12.3496-.1157.251-.4136.3613-.6641.2422-.2505-.1162-.3589-.4141-.2422-.6641 2.0205-4.3369 2.5781-12.394 2.5835-12.4746.0181-.2681.2383-.4624.5137-.4668l14.7783.4326c.1377.0044.2676.0649.3584.1675.0918.1025.1367.2388.125.3755-.3721 4.3228-1.8955 18.4189-5.9209 19.1543-.1191.0215-.2382.0332-.3574.0332zm-16.1962-4.5625c.3838 1.1191 1.4243 3.3643 3.6035 3.416 2.9434.0703 7.8281.1104 10.5967.1289-.7002-.71-1.4092-1.7969-2.1357-3.2656z"/><path d="m19.1133 7.5879c-.0059 0-.0117 0-.0176-.0005l-7.5376-.2651c-.2759-.0098-.4917-.2412-.4819-.5171.0098-.2764.2686-.5054.5171-.4819l7.5376.2651c.2764.0098.4922.2412.4824.5171-.0098.27-.2315.4824-.5.4824z"/><path d="m18.0674 10.98c-.0059 0-.0117 0-.0176-.0005l-7.0459-.2476c-.2759-.0093-.4917-.2412-.4819-.5171.0093-.2764.2529-.4951.5171-.4819l7.0459.2476c.2764.0093.4922.2412.4824.5171-.0098.27-.2315.4824-.5.4824z"/><path d="m14.1504 14.2959c-.0059 0-.0117 0-.0176 0l-4.021-.1416c-.2759-.0098-.4917-.2412-.4819-.5176.0093-.2764.2588-.4766.5171-.4824l4.021.1416c.2764.0098.4922.2412.4824.5176-.0098.2695-.2315.4824-.5.4824z"/><path d="m0 0h24v24h-24z" fill="none"/></svg>